<svg width="40" height="40" viewBox="0 0 40 40" fill="none" xmlns="http://www.w3.org/2000/svg">
<path d="M10.9589 30.8253C12.4895 31.1314 13.2548 31.2845 13.9212 31.2685C16.1824 31.2145 18.221 29.8935 19.1941 27.8517C19.4809 27.25 19.6539 26.4889 19.9998 24.9668V24.9668L22.0102 26.8814C22.5594 27.4045 22.834 27.666 23.0306 27.9749C23.2049 28.2488 23.3337 28.5491 23.4117 28.8642C23.4998 29.2196 23.4998 29.5989 23.4998 30.3573V37.0201C23.4998 37.4682 23.4998 37.6922 23.587 37.8633C23.6637 38.0139 23.7861 38.1362 23.9366 38.2129C24.1078 38.3001 24.3318 38.3001 24.7798 38.3001H25.7661C26.0145 38.3001 26.1387 38.3001 26.2405 38.2728C26.5164 38.1988 26.7318 37.9833 26.8058 37.7075C26.8332 37.6056 26.8332 37.4814 26.8332 37.2331V29.8521C26.8332 27.2646 25.7727 24.7902 23.899 23.0057V23.0057C23.5467 22.6702 23.391 22.1776 23.4864 21.7006L24.3332 17.4668C26.2452 19.6729 29.0657 21.2301 32.222 21.5657C32.6205 21.6081 32.8197 21.6293 33.0092 21.5498C33.165 21.4844 33.3193 21.3457 33.4007 21.1977C33.4998 21.0176 33.4998 20.7962 33.4998 20.3535V19.5801C33.4998 19.1349 33.4998 18.9123 33.4277 18.7542C33.3577 18.6004 33.2753 18.5052 33.1333 18.4137C32.9872 18.3195 32.7328 18.2824 32.2239 18.2082C29.6249 17.8291 27.4831 16.3126 26.3332 14.3001L24.6665 11.6335C23.9998 10.6335 22.9998 9.9668 21.8332 9.9668C21.6997 9.9668 21.5781 9.97867 21.462 9.99609C20.9788 10.0686 20.7371 10.1048 20.6268 10.13C20.4707 10.1656 20.4885 10.1606 20.3367 10.2118C20.2294 10.2479 20.0207 10.3362 19.6032 10.5128L16.716 11.7343C14.9507 12.4812 14.068 12.8546 13.4198 13.4602C12.847 13.9954 12.408 14.6577 12.1383 15.3939C11.8332 16.2268 11.8332 17.1852 11.8332 19.102V20.3535C11.8332 20.8015 11.8332 21.0255 11.9204 21.1967C11.9971 21.3472 12.1194 21.4696 12.27 21.5463C12.4411 21.6335 12.6651 21.6335 13.1132 21.6335H13.8865C14.3345 21.6335 14.5586 21.6335 14.7297 21.5463C14.8802 21.4696 15.0026 21.3472 15.0793 21.1967C15.1665 21.0255 15.1665 20.8015 15.1665 20.3535V19.1857C15.1665 18.0635 15.1665 17.5024 15.3393 17.0155C15.5135 16.5248 15.8123 16.0879 16.2065 15.7478C16.5977 15.4102 17.1206 15.2069 18.1665 14.8001V14.8001L16.4359 23.5614C16.1084 25.2191 15.9447 26.0479 15.4966 26.6157C15.1025 27.115 14.5599 27.4761 13.9472 27.6469C13.2505 27.8411 12.4227 27.6721 10.7671 27.3343L8.59225 26.8904C8.1517 26.8005 7.93142 26.7556 7.74589 26.8071C7.58271 26.8525 7.43813 26.9485 7.33297 27.0812C7.21343 27.2322 7.16934 27.4526 7.08116 27.8935L6.91753 28.7117C6.82966 29.151 6.78573 29.3707 6.83767 29.5556C6.88336 29.7182 6.97936 29.8622 7.11193 29.967C7.26264 30.086 7.48231 30.13 7.92165 30.2178L10.9589 30.8253Z" fill="#4D58DE"/>
<rect x="20" y="1.66699" width="6.66667" height="6.66667" rx="1.67" fill="#4D58DE"/>
</svg>
