<svg width="51" height="49" viewBox="0 0 51 49" fill="none" xmlns="http://www.w3.org/2000/svg">
<path fill-rule="evenodd" clip-rule="evenodd" d="M29.9796 4.98248C30.6866 5.16285 31.2788 5.62618 31.6059 6.25473C32.839 8.62418 33.7593 10.0623 34.6852 11.2282C35.6224 12.4085 36.6137 13.3747 38.1218 14.8236C41.6067 18.1718 43.3499 22.5652 43.3499 26.9505C43.3499 31.3357 41.6067 35.7291 38.1218 39.0773C31.1509 45.7748 19.8489 45.7748 12.878 39.0773C9.39312 35.7291 7.64991 31.3357 7.6499 26.9505C7.64989 22.5652 9.39311 18.1718 12.878 14.8236C13.6073 14.1229 14.7041 13.9133 15.657 14.2925C16.6099 14.6717 17.2312 15.5651 17.2312 16.556C17.2312 19.2995 17.4095 21.39 18.2447 23.0574C18.7039 23.9743 19.4203 24.8707 20.655 25.6706C20.9499 23.0717 21.4901 19.9054 22.22 16.8999C22.7946 14.5337 23.5094 12.1713 24.36 10.2014C24.7855 9.21603 25.2667 8.27782 25.8132 7.46776C26.3451 6.67928 27.0285 5.87691 27.9106 5.31188C28.5192 4.92207 29.2727 4.80211 29.9796 4.98248ZM30.9093 37.0476C27.9218 39.918 23.078 39.918 20.0905 37.0476C18.5968 35.6125 17.8499 33.7314 17.8499 31.8504C17.8499 31.8504 20.0905 33.0754 24.225 33.0754C24.225 30.6254 25.5 23.2754 27.4125 22.0504C28.6875 24.5004 29.4155 25.218 30.9093 26.6532C32.403 28.0883 33.1499 29.9694 33.1499 31.8504C33.1499 33.7314 32.403 35.6125 30.9093 37.0476Z" fill="#FEAA48"/>
</svg>
