<svg width="17" height="17" viewBox="0 0 17 17" fill="none" xmlns="http://www.w3.org/2000/svg">
<path d="M14.1666 8.53548C14.1534 7.45561 13.8318 6.40203 13.2398 5.4988C12.6478 4.59557 11.81 3.88032 10.8251 3.43728C9.84023 2.99424 8.74925 2.84186 7.68066 2.99809C6.61207 3.15431 5.61038 3.61264 4.79355 4.31909C3.97671 5.02554 3.37876 5.95069 3.07011 6.98559C2.76145 8.02049 2.75496 9.12204 3.05138 10.1605C3.3478 11.199 3.93479 12.1311 4.74323 12.8472C5.55167 13.5632 6.54789 14.0333 7.61456 14.2021V10.1859H6.1979V8.53548H7.61456V7.28173C7.58178 6.9902 7.61339 6.69503 7.70715 6.41706C7.80091 6.13908 7.95454 5.88507 8.15719 5.67296C8.35985 5.46084 8.60659 5.29579 8.88001 5.18946C9.15342 5.08313 9.44684 5.0381 9.73956 5.05756C10.1644 5.06359 10.5883 5.10148 11.0075 5.1709V6.58756H10.2991C10.177 6.57216 10.053 6.5844 9.93618 6.62338C9.8194 6.66236 9.71288 6.72708 9.62448 6.81276C9.53608 6.89844 9.46806 7.00289 9.42545 7.11839C9.38284 7.2339 9.36673 7.3575 9.37831 7.48006V8.54964H10.9508L10.6958 10.2001H9.3854V14.1667C10.7241 13.955 11.9425 13.2704 12.8197 12.2373C13.697 11.2041 14.1748 9.89078 14.1666 8.53548Z" fill="#5474FF"/>
</svg>
