<svg width="12" height="12" viewBox="0 0 12 12" fill="none" xmlns="http://www.w3.org/2000/svg">
<path d="M9.1875 0H2.8125C1.2592 0 0 1.2592 0 2.8125V9.1875C0 10.7408 1.2592 12 2.8125 12H9.1875C10.7408 12 12 10.7408 12 9.1875V2.8125C12 1.2592 10.7408 0 9.1875 0Z" fill="url(#paint0_radial_2265_2165)"/>
<path d="M9.1875 0H2.8125C1.2592 0 0 1.2592 0 2.8125V9.1875C0 10.7408 1.2592 12 2.8125 12H9.1875C10.7408 12 12 10.7408 12 9.1875V2.8125C12 1.2592 10.7408 0 9.1875 0Z" fill="url(#paint1_radial_2265_2165)"/>
<path d="M6.00042 1.3125C4.72739 1.3125 4.56759 1.31808 4.06763 1.34081C3.56859 1.36369 3.22795 1.44267 2.92992 1.55859C2.62158 1.67831 2.36006 1.83848 2.09953 2.09911C1.83877 2.35969 1.67859 2.6212 1.5585 2.92941C1.44225 3.22753 1.36317 3.56831 1.34072 4.06711C1.31836 4.56712 1.3125 4.72697 1.3125 6.00005C1.3125 7.27313 1.31813 7.43241 1.34081 7.93237C1.36378 8.43141 1.44277 8.77205 1.55859 9.07008C1.67841 9.37842 1.83858 9.63994 2.0992 9.90047C2.35969 10.1612 2.6212 10.3218 2.92931 10.4415C3.22758 10.5574 3.56827 10.6364 4.0672 10.6593C4.56722 10.682 4.72688 10.6876 5.99986 10.6876C7.27303 10.6876 7.43231 10.682 7.93228 10.6593C8.43131 10.6364 8.77233 10.5574 9.07059 10.4415C9.3788 10.3218 9.63994 10.1612 9.90037 9.90047C10.1611 9.63994 10.3213 9.37842 10.4414 9.07022C10.5566 8.77205 10.6357 8.43131 10.6592 7.93247C10.6816 7.4325 10.6875 7.27313 10.6875 6.00005C10.6875 4.72697 10.6816 4.56722 10.6592 4.0672C10.6357 3.56817 10.5566 3.22758 10.4414 2.92955C10.3213 2.6212 10.1611 2.35969 9.90037 2.09911C9.63966 1.83839 9.37889 1.67822 9.07031 1.55864C8.77148 1.44267 8.43066 1.36364 7.93162 1.34081C7.43161 1.31808 7.27242 1.3125 5.99897 1.3125H6.00042ZM5.57991 2.15723C5.70473 2.15705 5.844 2.15723 6.00042 2.15723C7.25203 2.15723 7.40034 2.16173 7.89459 2.18419C8.35162 2.20509 8.59969 2.28145 8.76492 2.34563C8.98369 2.43056 9.13964 2.53214 9.30361 2.69625C9.46767 2.86031 9.5692 3.01655 9.65438 3.23531C9.71855 3.40031 9.795 3.64838 9.81581 4.10541C9.83827 4.59956 9.84314 4.74797 9.84314 5.99897C9.84314 7.24997 9.83827 7.39842 9.81581 7.89253C9.79491 8.34956 9.71855 8.59762 9.65438 8.76267C9.56944 8.98144 9.46767 9.1372 9.30361 9.30117C9.13955 9.46523 8.98378 9.56677 8.76492 9.65175C8.59988 9.7162 8.35162 9.79238 7.89459 9.81328C7.40044 9.83573 7.25203 9.84061 6.00042 9.84061C4.74877 9.84061 4.60041 9.83573 4.1063 9.81328C3.64927 9.79219 3.4012 9.71583 3.23583 9.65166C3.01711 9.56667 2.86083 9.46514 2.69677 9.30108C2.5327 9.13702 2.43117 8.98116 2.346 8.7623C2.28183 8.59725 2.20538 8.34919 2.18456 7.89216C2.16211 7.398 2.15761 7.24959 2.15761 5.9978C2.15761 4.746 2.16211 4.59839 2.18456 4.10423C2.20547 3.6472 2.28183 3.39914 2.346 3.23391C2.43098 3.01514 2.5327 2.85891 2.69681 2.69484C2.86092 2.53078 3.01711 2.4292 3.23587 2.34408C3.40111 2.27962 3.64927 2.20345 4.1063 2.18245C4.53872 2.16291 4.7063 2.15705 5.57991 2.15606V2.15723ZM8.50261 2.93555C8.19206 2.93555 7.94011 3.18727 7.94011 3.49786C7.94011 3.80841 8.19206 4.06036 8.50261 4.06036C8.81316 4.06036 9.06511 3.80841 9.06511 3.49786C9.06511 3.18731 8.81316 2.93536 8.50261 2.93536V2.93555ZM6.00042 3.59278C4.67105 3.59278 3.5932 4.67063 3.5932 6.00005C3.5932 7.32947 4.67105 8.4068 6.00042 8.4068C7.32984 8.4068 8.40731 7.32947 8.40731 6.00005C8.40731 4.67067 7.32975 3.59278 6.00033 3.59278H6.00042ZM6.00042 4.43752C6.86334 4.43752 7.56295 5.13703 7.56295 6.00005C7.56295 6.86297 6.86334 7.56258 6.00042 7.56258C5.1375 7.56258 4.43794 6.86297 4.43794 6.00005C4.43794 5.13703 5.13745 4.43752 6.00042 4.43752Z" fill="white"/>
<defs>
<radialGradient id="paint0_radial_2265_2165" cx="0" cy="0" r="1" gradientUnits="userSpaceOnUse" gradientTransform="translate(3.1875 12.9242) rotate(-90) scale(11.8929 11.0613)">
<stop stop-color="#FFDD55"/>
<stop offset="0.1" stop-color="#FFDD55"/>
<stop offset="0.5" stop-color="#FF543E"/>
<stop offset="1" stop-color="#C837AB"/>
</radialGradient>
<radialGradient id="paint1_radial_2265_2165" cx="0" cy="0" r="1" gradientUnits="userSpaceOnUse" gradientTransform="translate(-2.01005 0.864422) rotate(78.681) scale(5.31619 21.9135)">
<stop stop-color="#3771C8"/>
<stop offset="0.128" stop-color="#3771C8"/>
<stop offset="1" stop-color="#6600FF" stop-opacity="0"/>
</radialGradient>
</defs>
</svg>
