<svg width="44" height="43" viewBox="0 0 44 43" fill="none" xmlns="http://www.w3.org/2000/svg">
<path d="M25.5583 43C21.6883 43 18.3916 41.6383 15.6683 38.915C12.9449 36.1917 11.5833 32.895 11.5833 29.025V27.7888C8.50159 27.2871 5.9395 25.8448 3.897 23.4619C1.8545 21.079 0.833252 18.275 0.833252 15.05V2.15H7.28325V0H11.5833V8.6H7.28325V6.45H5.13325V15.05C5.13325 17.415 5.97534 19.4396 7.6595 21.1238C9.34367 22.8079 11.3683 23.65 13.7333 23.65C16.0983 23.65 18.1228 22.8079 19.807 21.1238C21.4912 19.4396 22.3333 17.415 22.3333 15.05V6.45H20.1833V8.6H15.8833V0H20.1833V2.15H26.6333V15.05C26.6333 18.275 25.612 21.079 23.5695 23.4619C21.527 25.8448 18.9649 27.2871 15.8833 27.7888V29.025C15.8833 31.7125 16.8239 33.9969 18.7051 35.8781C20.5864 37.7594 22.8708 38.7 25.5583 38.7C28.2458 38.7 30.5301 37.7594 32.4114 35.8781C34.2926 33.9969 35.2333 31.7125 35.2333 29.025V25.4237C33.9791 24.9938 32.9489 24.2233 32.1426 23.1125C31.3364 22.0017 30.9333 20.7475 30.9333 19.35C30.9333 17.5583 31.5603 16.0354 32.8145 14.7813C34.0687 13.5271 35.5916 12.9 37.3833 12.9C39.1749 12.9 40.6978 13.5271 41.952 14.7813C43.2062 16.0354 43.8333 17.5583 43.8333 19.35C43.8333 20.7475 43.4301 22.0017 42.6239 23.1125C41.8176 24.2233 40.7874 24.9938 39.5333 25.4237V29.025C39.5333 32.895 38.1716 36.1917 35.4483 38.915C32.7249 41.6383 29.4283 43 25.5583 43ZM37.3833 21.5C37.9924 21.5 38.503 21.294 38.9151 20.8819C39.3272 20.4698 39.5333 19.9592 39.5333 19.35C39.5333 18.7408 39.3272 18.2302 38.9151 17.8181C38.503 17.406 37.9924 17.2 37.3833 17.2C36.7741 17.2 36.2635 17.406 35.8514 17.8181C35.4393 18.2302 35.2333 18.7408 35.2333 19.35C35.2333 19.9592 35.4393 20.4698 35.8514 20.8819C36.2635 21.294 36.7741 21.5 37.3833 21.5Z" fill="#007AFF"/>
</svg>
